<?xml version="1.0" encoding="UTF-8"?>
<svg width="15px" height="14px" viewBox="0 0 15 14" version="1.1" xmlns="http://www.w3.org/2000/svg" xmlns:xlink="http://www.w3.org/1999/xlink">
    <!-- Generator: Sketch 63.1 (92452) - https://sketch.com -->
    <title>menu</title>
    <desc>Created with Sketch.</desc>
    <g id="Platform" stroke="none" stroke-width="1" fill="none" fill-rule="evenodd">
        <g id="-g-003_Projects-(clean)" transform="translate(-1586.000000, -43.000000)" fill="#0FB55D">
            <g id="cancel" transform="translate(1586.338129, 43.000000)">
                <g id="271203">
                    <path d="M8.54193496,7 L13.7763415,1.76536585 C13.9203252,1.62126829 13.9997724,1.42902439 14,1.22403252 C14,1.01892683 13.9205528,0.826455285 13.7763415,0.682585366 L13.3176423,0.224 C13.1734309,0.0795609756 12.981187,0.000455284553 12.7759675,0.000455284553 C12.5710894,0.000455284553 12.3788455,0.0795609756 12.2346341,0.224 L7.00022764,5.45829268 L1.7655935,0.224 C1.62160976,0.0795609756 1.42925203,0.000455284553 1.22414634,0.000455284553 C1.01926829,0.000455284553 0.826910569,0.0795609756 0.682926829,0.224 L0.224,0.682585366 C-0.0746666667,0.981252033 -0.0746666667,1.46704065 0.224,1.76536585 L5.45852033,7 L0.224,12.2344065 C0.079902439,12.3787317 0.000569105691,12.5709756 0.000569105691,12.7759675 C0.000569105691,12.9809593 0.079902439,13.1732033 0.224,13.3174146 L0.682813008,13.776 C0.826796748,13.9203252 1.01926829,13.9995447 1.22403252,13.9995447 C1.42913821,13.9995447 1.62149593,13.9203252 1.76547967,13.776 L7.00011382,8.5415935 L12.2345203,13.776 C12.3787317,13.9203252 12.5709756,13.9995447 12.7758537,13.9995447 L12.7760813,13.9995447 C12.9810732,13.9995447 13.1733171,13.9203252 13.3175285,13.776 L13.7762276,13.3174146 C13.9202114,13.1733171 13.9996585,12.9809593 13.9996585,12.7759675 C13.9996585,12.5709756 13.9202114,12.3787317 13.7762276,12.2345203 L8.54193496,7 Z" id="Path" fill-rule="nonzero"></path>
                </g>
            </g>
        </g>
    </g>
</svg>