<?xml version="1.0" encoding="UTF-8"?>
<svg width="39px" height="39px" viewBox="0 0 39 39" version="1.1" xmlns="http://www.w3.org/2000/svg" xmlns:xlink="http://www.w3.org/1999/xlink">
    <!-- Generator: Sketch 63.1 (92452) - https://sketch.com -->
    <title>check</title>
    <desc>Created with Sketch.</desc>
    <g id="Platform" stroke="none" stroke-width="1" fill="none" fill-rule="evenodd">
        <g id="-g-009.02_Credits" transform="translate(-941.000000, -287.000000)">
            <g id="Group-3" transform="translate(699.000000, 169.000000)">
                <g id="check" transform="translate(242.000000, 118.000000)">
                    <g id="1828640">
                        <path d="M19.5,0 C8.74726871,0 0,8.74726871 0,19.5 C0,30.2527313 8.74726871,39 19.5,39 C30.2527313,39 39,30.2527313 39,19.5 C39,8.74726871 30.2527313,0 19.5,0 Z" id="Path" fill="#16D275" fill-rule="nonzero"></path>
                        <path d="M29.3833008,15.3676758 L18.8207016,25.9299774 C18.5038147,26.2468643 18.0878449,26.4063492 17.671875,26.4063492 C17.2559051,26.4063492 16.8399353,26.2468643 16.5230484,25.9299774 L11.2418976,20.6488266 C10.6063385,20.0135651 10.6063385,18.9864349 11.2418976,18.3511734 C11.8771591,17.7156143 12.9039917,17.7156143 13.5395508,18.3511734 L17.671875,22.4834976 L27.0856476,13.0700226 C27.7209091,12.4344635 28.7477417,12.4344635 29.3833008,13.0700226 C30.0185623,13.7052841 30.0185623,14.7321167 29.3833008,15.3676758 Z" id="Path" fill="#FAFAFA" fill-rule="nonzero"></path>
                    </g>
                </g>
            </g>
        </g>
    </g>
</svg>