<?xml version="1.0" encoding="UTF-8"?>
<svg width="124px" height="31px" viewBox="0 0 124 31" version="1.1" xmlns="http://www.w3.org/2000/svg" xmlns:xlink="http://www.w3.org/1999/xlink">
    <!-- Generator: Sketch 63.1 (92452) - https://sketch.com -->
    <title>PayPal</title>
    <desc>Created with Sketch.</desc>
    <g id="Platform" stroke="none" stroke-width="1" fill="none" fill-rule="evenodd">
        <g id="-g-009_Credits" transform="translate(-819.000000, -510.000000)" fill-rule="nonzero">
            <g id="Admin" transform="translate(684.000000, 205.000000)">
                <g id="Group-4" transform="translate(36.000000, 305.000000)">
                    <g id="PayPal" transform="translate(99.000000, 0.000000)">
                        <path d="M46.211,6.74899981 L39.372,6.74899981 C38.9042401,6.74870497 38.505872,7.08895123 38.433,7.551 L35.667,25.088 C35.6412654,25.25269 35.6889102,25.4203923 35.7973897,25.5469517 C35.9058692,25.6735111 36.0643116,25.7462439 36.231,25.7460006 L39.496,25.7460006 C39.9640838,25.7462178 40.3625702,25.4054462 40.435,24.943 L41.181,20.213 C41.2533711,19.7509281 41.651295,19.4102747 42.119,19.41 L44.284,19.41 C48.789,19.41 51.389,17.23 52.068,12.91 C52.374,11.02 52.081,9.535 51.196,8.495 C50.224,7.353 48.5,6.74899981 46.211,6.74899981 L46.211,6.74899981 Z M47,13.154 C46.626,15.608 44.751,15.608 42.938,15.608 L41.906,15.608 L42.63,11.025 C42.673788,10.7479999 42.9125603,10.544 43.193,10.544 L43.666,10.544 C44.901,10.544 46.066,10.544 46.668,11.248 C47.027,11.668 47.137,12.292 47,13.154 L47,13.154 Z M66.654,13.075 L63.379,13.075 C63.0985603,13.0750044 62.859788,13.2789999 62.816,13.556 L62.671,14.472 L62.442,14.14 C61.733,13.111 60.152,12.767 58.574,12.767 C54.955,12.767 51.864,15.508 51.262,19.353 C50.949,21.271 51.394,23.105 52.482,24.384 C53.48,25.56 54.908,26.05 56.607,26.05 C59.523,26.05 61.14,24.175 61.14,24.175 L60.994,25.085 C60.9676712,25.2496564 61.0147632,25.4175849 61.122869,25.5445418 C61.2309748,25.6714988 61.3892521,25.7447514 61.556,25.745 L64.506,25.745 C64.9740838,25.7452178 65.3725702,25.4044462 65.445,24.942 L67.215,13.733 C67.2413658,13.5687047 67.1943624,13.4011109 67.0864056,13.2744878 C66.9784488,13.1478646 66.8203974,13.0749486 66.654,13.075 L66.654,13.075 Z M62.089,19.449 C61.773,21.32 60.288,22.576 58.394,22.576 C57.443,22.576 56.683,22.271 56.195,21.693 C55.711,21.119 55.527,20.302 55.681,19.392 C55.976,17.537 57.486,16.24 59.351,16.24 C60.281,16.24 61.037,16.549 61.535,17.132 C62.034,17.721 62.232,18.543 62.089,19.449 L62.089,19.449 Z M84.096,13.074998 L80.805,13.074998 C80.4898984,13.0754988 80.1953683,13.2315586 80.018,13.492 L75.479,20.178 L73.555,13.753 C73.4337359,13.350641 73.0632353,13.075203 72.643,13.074998 L69.409,13.074998 C69.224812,13.0745102 69.0517392,13.1630531 68.9443627,13.3127052 C68.8369863,13.4623574 68.808542,13.6546721 68.868,13.829 L72.493,24.467 L69.085,29.278 C68.9615278,29.451893 68.9454599,29.6801667 69.0433552,29.8696415 C69.1412505,30.0591162 69.3367299,30.1780009 69.55,30.1780009 L72.837,30.1780009 C73.1485191,30.1784291 73.4404112,30.0259425 73.618,29.77 L84.564,13.97 C84.6849232,13.795771 84.6991171,13.568812 84.6008436,13.3808745 C84.5025701,13.192937 84.3080806,13.074998 84.096,13.074998 L84.096,13.074998 Z" id="Shape" fill="#253B80"></path>
                        <path d="M94.992,6.749 L88.152,6.749 C87.6846189,6.74919718 87.286813,7.0893254 87.214,7.551 L84.448,25.088 C84.4219639,25.2524065 84.4692245,25.4199694 84.5773303,25.5465416 C84.685436,25.6731138 84.8435447,25.746 85.01,25.746 L88.52,25.746 C88.8471338,25.7455204 89.1253315,25.5071864 89.176,25.184 L89.961,20.213 C90.0333711,19.7509281 90.431295,19.4102747 90.899,19.41 L93.063,19.41 C97.569,19.41 100.168,17.23 100.848,12.91 C101.155,11.02 100.86,9.535 99.975,8.495 C99.004,7.353 97.281,6.749 94.992,6.749 L94.992,6.749 Z M95.781,13.154 C95.408,15.608 93.533,15.608 91.719,15.608 L90.688,15.608 L91.413,11.025 C91.4559442,10.7479358 91.6946277,10.5436533 91.975,10.5439996 L92.448,10.5439996 C93.682,10.5439996 94.848,10.5439996 95.45,11.248 C95.809,11.668 95.918,12.292 95.781,13.154 L95.781,13.154 Z M115.434,13.075 L112.161,13.075 C111.880471,13.0742283 111.641548,13.2787155 111.599,13.556 L111.454,14.472 L111.224,14.14 C110.515,13.111 108.935,12.767 107.357,12.767 C103.738,12.767 100.648,15.508 100.046,19.353 C99.734,21.271 100.177,23.105 101.265,24.384 C102.265,25.56 103.691,26.05 105.39,26.05 C108.306,26.05 109.923,24.175 109.923,24.175 L109.777,25.085 C109.750616,25.2500015 109.797962,25.4182701 109.906518,25.545303 C110.015073,25.6723359 110.173903,25.7453372 110.341,25.745 L113.29,25.745 C113.757705,25.7447253 114.155629,25.4040719 114.228,24.942 L115.999,13.733 C116.024406,13.5681995 115.976505,13.4005274 115.867877,13.2740183 C115.759248,13.1475093 115.600747,13.0748053 115.434,13.075 L115.434,13.075 Z M110.869,19.449 C110.555,21.32 109.068,22.576 107.174,22.576 C106.225,22.576 105.463,22.271 104.975,21.693 C104.491,21.119 104.309,20.302 104.461,19.392 C104.758,17.537 106.266,16.24 108.131,16.24 C109.061,16.24 109.817,16.549 110.315,17.132 C110.816,17.721 111.014,18.543 110.869,19.449 L110.869,19.449 Z M119.295,7.23 L116.488,25.088 C116.461964,25.2524065 116.509225,25.4199694 116.61733,25.5465416 C116.725436,25.6731138 116.883545,25.746 117.05,25.746 L119.872,25.746 C120.341,25.746 120.739,25.406 120.811,24.943 L123.579,7.407 C123.605004,7.24249919 123.557763,7.07485351 123.449695,6.94813316 C123.341627,6.82141281 123.183543,6.74829474 123.017,6.748 L119.857,6.748 C119.576771,6.74899226 119.338677,6.95319386 119.295,7.23 L119.295,7.23 Z" id="Shape" fill="#179BD7"></path>
                        <path d="M7.266,29.154 L7.789,25.832 L6.624,25.805 L1.061,25.805 L4.927,1.292 C4.95078838,1.13719591 5.084381,1.02317419 5.241,1.02399554 L14.621,1.02399554 C17.735,1.02399554 19.884,1.672 21.006,2.951 C21.532,3.551 21.867,4.178 22.029,4.868 C22.199,5.592 22.202,6.457 22.036,7.512 L22.024,7.589 L22.024,8.265 L22.55,8.563 C22.951557,8.76644006 23.3125006,9.04163832 23.615,9.375 C24.065,9.888 24.356,10.54 24.479,11.313 C24.606,12.108 24.564,13.054 24.356,14.125 C24.116,15.357 23.728,16.43 23.204,17.308 C22.7416679,18.0945464 22.1200439,18.7757781 21.379,19.308 C20.683,19.802 19.856,20.177 18.921,20.417 C18.015,20.653 16.982,20.772 15.849,20.772 L15.119,20.772 C14.597,20.772 14.09,20.96 13.692,21.297 C13.2945643,21.6375958 13.0309145,22.1081965 12.948,22.625 L12.893,22.924 L11.969,28.779 L11.927,28.994 C11.916,29.062 11.897,29.096 11.869,29.119 C11.8418759,29.1411822 11.8080362,29.1535196 11.773,29.154 L7.266,29.154 Z" id="Path" fill="#253B80"></path>
                        <path d="M23.048,7.667 C23.02,7.846 22.988,8.029 22.952,8.217 C21.715,14.568 17.483,16.762 12.078,16.762 L9.326,16.762 C8.665,16.762 8.108,17.242 8.005,17.894 L6.596,26.83 L6.197,29.363 C6.16483352,29.5663367 6.22328118,29.773565 6.35695534,29.9301272 C6.49062949,30.0866894 6.68613474,30.177 6.892,30.177 L11.773,30.177 C12.351,30.177 12.842,29.757 12.933,29.187 L12.981,28.939 L13.9,23.107 L13.959,22.787 C14.049,22.215 14.541,21.795 15.119,21.795 L15.849,21.795 C20.578,21.795 24.28,19.875 25.362,14.319 C25.814,11.998 25.58,10.06 24.384,8.697 C24.0049302,8.27536306 23.5522025,7.92632893 23.048,7.667 L23.048,7.667 Z" id="Path" fill="#179BD7"></path>
                        <path d="M21.754,7.151 C21.3590264,7.03674119 20.9572252,6.94756338 20.551,6.884 C19.7483199,6.76064186 18.9370848,6.70145447 18.125,6.707 L10.773,6.707 C10.1948778,6.70664365 9.70278995,7.12773666 9.614,7.699 L8.05,17.605 L8.005,17.894 C8.10567714,17.2423946 8.66666295,16.761671 9.326,16.762 L12.078,16.762 C17.483,16.762 21.715,14.567 22.952,8.217 C22.989,8.029 23.02,7.846 23.048,7.667 C22.7215853,7.49582858 22.3813938,7.35232596 22.031,7.238 C21.9391381,7.20751984 21.8467929,7.1785161 21.754,7.151 L21.754,7.151 Z" id="Path" fill="#222D65"></path>
                        <path d="M9.614,7.699 C9.70204844,7.12747349 10.1947338,6.70620417 10.773,6.708 L18.125,6.708 C18.996,6.708 19.809,6.765 20.551,6.885 C21.0531075,6.96391224 21.5482813,7.08193813 22.032,7.238 C22.397,7.359 22.736,7.502 23.049,7.667 C23.417,5.32 23.046,3.722 21.777,2.275 C20.378,0.682 17.853,0 14.622,0 L5.242,0 C4.582,0 4.019,0.48 3.917,1.133 L0.01,25.898 C-0.0268284344,26.1306872 0.0399894933,26.3678396 0.192877275,26.5470741 C0.345765056,26.7263086 0.56941653,26.8296813 0.805,26.83 L6.596,26.83 L8.05,17.605 L9.614,7.699 Z" id="Path" fill="#253B80"></path>
                    </g>
                </g>
            </g>
        </g>
    </g>
</svg>