<?xml version="1.0" encoding="UTF-8"?>
<svg width="18px" height="18px" viewBox="0 0 18 18" version="1.1" xmlns="http://www.w3.org/2000/svg" xmlns:xlink="http://www.w3.org/1999/xlink">
    <!-- Generator: Sketch 63.1 (92452) - https://sketch.com -->
    <title>magnifying-glass</title>
    <desc>Created with Sketch.</desc>
    <g id="Platform" stroke="none" stroke-width="1" fill="none" fill-rule="evenodd" opacity="0.6">
        <g id="-g-003.02_Projects" transform="translate(-1015.000000, -157.000000)" fill="#11BE62" fill-rule="nonzero">
            <g id="password" transform="translate(986.000000, 142.000000)">
                <g id="magnifying-glass" transform="translate(29.000000, 15.000000)">
                    <path d="M12.0206366,2.05954527 C9.27457627,-0.686515089 4.80515916,-0.686515089 2.0590988,2.05954527 C-0.686366267,4.80620091 -0.686366267,9.27502274 2.0590988,12.0216784 C4.50453907,14.4665234 8.31318727,14.7284498 11.0574618,12.8193634 C11.1152046,13.0926002 11.2473584,13.3533361 11.459876,13.5658537 L15.4590161,17.5649938 C16.0418024,18.1465895 16.9835469,18.1465895 17.5633568,17.5649938 C18.1455477,16.9828028 18.1455477,16.0410583 17.5633568,15.4606532 L13.5642166,11.4603224 C13.3528896,11.2495907 13.0915585,11.1168417 12.8183216,11.0590988 C14.7285986,8.31422902 14.4666722,4.50617611 12.0206366,2.05954527 Z M10.7580322,10.759074 C8.70786275,12.8092435 5.37127739,12.8092435 3.32170318,10.759074 C1.27272427,8.70890451 1.27272427,5.37291443 3.32170318,3.32274494 C5.37127739,1.27317073 8.70786275,1.27317073 10.7580322,3.32274494 C12.8082017,5.37291443 12.8082017,8.70890451 10.7580322,10.759074 Z" id="Shape"></path>
                </g>
            </g>
        </g>
    </g>
</svg>